HIERARCHY
ROOT Hips
{
	OFFSET 0.000000 97.167313 0.000000
	CHANNELS 6 Xposition Yposition Zposition Xrotation Yrotation Zrotation
	JOINT Spine
	{
		OFFSET 0.000000 13.784798 0.064400
		CHANNELS 3 Xrotation Yrotation Zrotation
		JOINT Spine1
		{
			OFFSET 0.000000 12.037903 0.404700
			CHANNELS 3 Xrotation Yrotation Zrotation
			JOINT Spine2
			{
				OFFSET 0.000000 17.795601 0.420200
				CHANNELS 3 Xrotation Yrotation Zrotation
				JOINT Neck
				{
					OFFSET 0.000000 39.131302 11.954600
					CHANNELS 3 Xrotation Yrotation Zrotation
					JOINT Head
					{
						OFFSET 0.000000 14.456192 15.627699
						CHANNELS 3 Xrotation Yrotation Zrotation
						JOINT HeadTop_End
						{
							OFFSET 0.000000 15.703506 7.603401
							CHANNELS 3 Xrotation Yrotation Zrotation
							End Site
							{
								OFFSET 0.000000 17.447403 0.000000
							}
						}
					}
				}
				JOINT LeftShoulder
				{
					OFFSET 17.399500 24.608795 1.168800
					CHANNELS 3 Xrotation Yrotation Zrotation
					JOINT LeftArm
					{
						OFFSET 18.980635 5.765305 1.818600
						CHANNELS 3 Xrotation Yrotation Zrotation
						JOINT LeftForeArm
						{
							OFFSET 49.290169 0.000000 0.000000
							CHANNELS 3 Xrotation Yrotation Zrotation
							JOINT LeftHand
							{
								OFFSET 31.562012 0.000000 0.000000
								CHANNELS 3 Xrotation Yrotation Zrotation
								JOINT LeftHandThumb1
								{
									OFFSET 6.133995 -4.388519 7.076070
									CHANNELS 3 Xrotation Yrotation Zrotation
									JOINT LeftHandThumb2
									{
										OFFSET 6.037666 -3.485840 3.485847
										CHANNELS 3 Xrotation Yrotation Zrotation
										JOINT LeftHandThumb3
										{
											OFFSET 6.496506 -3.750763 3.750761
											CHANNELS 3 Xrotation Yrotation Zrotation
											JOINT LeftHandThumb4
											{
												OFFSET 5.616882 -3.242905 3.242910
												CHANNELS 3 Xrotation Yrotation Zrotation
												End Site
												{
													OFFSET -1.254608 7.132141 0.375429
												}
											}
										}
									}
								}
								JOINT LeftHandPinky1
								{
									OFFSET 18.920792 -0.453171 -11.426712
									CHANNELS 3 Xrotation Yrotation Zrotation
									JOINT LeftHandPinky2
									{
										OFFSET 4.919586 0.000000 0.000000
										CHANNELS 3 Xrotation Yrotation Zrotation
										JOINT LeftHandPinky3
										{
											OFFSET 5.233047 0.000000 0.000000
											CHANNELS 3 Xrotation Yrotation Zrotation
											JOINT LeftHandPinky4
											{
												OFFSET 5.571716 0.000000 0.000000
												CHANNELS 3 Xrotation Yrotation Zrotation
												End Site
												{
													OFFSET -3.459808 4.342407 -0.466164
												}
											}
										}
									}
								}
								JOINT LeftHandRing1
								{
									OFFSET 22.726120 -0.094986 -6.500475
									CHANNELS 3 Xrotation Yrotation Zrotation
									JOINT LeftHandRing2
									{
										OFFSET 6.408615 0.000000 0.000000
										CHANNELS 3 Xrotation Yrotation Zrotation
										JOINT LeftHandRing3
										{
											OFFSET 6.150223 0.000000 0.000000
											CHANNELS 3 Xrotation Yrotation Zrotation
											JOINT LeftHandRing4
											{
												OFFSET 6.145386 0.000000 0.000000
												CHANNELS 3 Xrotation Yrotation Zrotation
												End Site
												{
													OFFSET -3.671402 4.923981 -0.202372
												}
											}
										}
									}
								}
								JOINT LeftHandMiddle1
								{
									OFFSET 23.373947 0.000000 0.000001
									CHANNELS 3 Xrotation Yrotation Zrotation
									JOINT LeftHandMiddle2
									{
										OFFSET 6.996567 0.000000 0.000000
										CHANNELS 3 Xrotation Yrotation Zrotation
										JOINT LeftHandMiddle3
										{
											OFFSET 7.015945 0.000000 0.000000
											CHANNELS 3 Xrotation Yrotation Zrotation
											JOINT LeftHandMiddle4
											{
												OFFSET 7.721573 0.000000 0.000000
												CHANNELS 3 Xrotation Yrotation Zrotation
												End Site
												{
													OFFSET -4.651108 6.158463 0.251582
												}
											}
										}
									}
								}
								JOINT LeftHandIndex1
								{
									OFFSET 21.310577 -0.490082 6.209344
									CHANNELS 3 Xrotation Yrotation Zrotation
									JOINT LeftHandIndex2
									{
										OFFSET 7.536453 0.000000 0.000000
										CHANNELS 3 Xrotation Yrotation Zrotation
										JOINT LeftHandIndex3
										{
											OFFSET 7.512344 0.000000 0.000000
											CHANNELS 3 Xrotation Yrotation Zrotation
											JOINT LeftHandIndex4
											{
												OFFSET 10.212402 0.000000 0.000001
												CHANNELS 3 Xrotation Yrotation Zrotation
												End Site
												{
													OFFSET -5.180801 8.690506 1.388433
												}
											}
										}
									}
								}
							}
						}
					}
				}
				JOINT RightShoulder
				{
					OFFSET -17.399500 24.608795 1.168800
					CHANNELS 3 Xrotation Yrotation Zrotation
					JOINT RightArm
					{
						OFFSET -18.980635 5.765305 1.818600
						CHANNELS 3 Xrotation Yrotation Zrotation
						JOINT RightForeArm
						{
							OFFSET -49.290169 0.000000 0.000000
							CHANNELS 3 Xrotation Yrotation Zrotation
							JOINT RightHand
							{
								OFFSET -31.562012 0.000000 0.000000
								CHANNELS 3 Xrotation Yrotation Zrotation
								JOINT RightHandThumb1
								{
									OFFSET -6.133995 -4.388519 7.076070
									CHANNELS 3 Xrotation Yrotation Zrotation
									JOINT RightHandThumb2
									{
										OFFSET -6.037666 -3.485840 3.485847
										CHANNELS 3 Xrotation Yrotation Zrotation
										JOINT RightHandThumb3
										{
											OFFSET -6.496506 -3.750763 3.750761
											CHANNELS 3 Xrotation Yrotation Zrotation
											JOINT RightHandThumb4
											{
												OFFSET -5.616882 -3.242905 3.242910
												CHANNELS 3 Xrotation Yrotation Zrotation
												End Site
												{
													OFFSET 1.254608 7.132141 0.375429
												}
											}
										}
									}
								}
								JOINT RightHandIndex1
								{
									OFFSET -21.310577 -0.490082 6.209344
									CHANNELS 3 Xrotation Yrotation Zrotation
									JOINT RightHandIndex2
									{
										OFFSET -7.536453 0.000000 0.000000
										CHANNELS 3 Xrotation Yrotation Zrotation
										JOINT RightHandIndex3
										{
											OFFSET -7.512344 0.000000 0.000000
											CHANNELS 3 Xrotation Yrotation Zrotation
											JOINT RightHandIndex4
											{
												OFFSET -10.212402 0.000000 0.000001
												CHANNELS 3 Xrotation Yrotation Zrotation
												End Site
												{
													OFFSET 5.180801 8.690506 1.388433
												}
											}
										}
									}
								}
								JOINT RightHandMiddle1
								{
									OFFSET -23.373947 0.000000 0.000001
									CHANNELS 3 Xrotation Yrotation Zrotation
									JOINT RightHandMiddle2
									{
										OFFSET -6.996567 0.000000 0.000000
										CHANNELS 3 Xrotation Yrotation Zrotation
										JOINT RightHandMiddle3
										{
											OFFSET -7.015945 0.000000 0.000000
											CHANNELS 3 Xrotation Yrotation Zrotation
											JOINT RightHandMiddle4
											{
												OFFSET -7.721573 0.000000 0.000000
												CHANNELS 3 Xrotation Yrotation Zrotation
												End Site
												{
													OFFSET 4.651108 6.158463 0.251582
												}
											}
										}
									}
								}
								JOINT RightHandRing1
								{
									OFFSET -22.726120 -0.094986 -6.500475
									CHANNELS 3 Xrotation Yrotation Zrotation
									JOINT RightHandRing2
									{
										OFFSET -6.408615 0.000000 0.000000
										CHANNELS 3 Xrotation Yrotation Zrotation
										JOINT RightHandRing3
										{
											OFFSET -6.150223 0.000000 0.000000
											CHANNELS 3 Xrotation Yrotation Zrotation
											JOINT RightHandRing4
											{
												OFFSET -6.145386 0.000000 0.000000
												CHANNELS 3 Xrotation Yrotation Zrotation
												End Site
												{
													OFFSET 3.671402 4.923981 -0.202372
												}
											}
										}
									}
								}
								JOINT RightHandPinky1
								{
									OFFSET -18.920792 -0.453171 -11.426712
									CHANNELS 3 Xrotation Yrotation Zrotation
									JOINT RightHandPinky2
									{
										OFFSET -4.919586 0.000000 0.000000
										CHANNELS 3 Xrotation Yrotation Zrotation
										JOINT RightHandPinky3
										{
											OFFSET -5.233047 0.000000 0.000000
											CHANNELS 3 Xrotation Yrotation Zrotation
											JOINT RightHandPinky4
											{
												OFFSET -5.571716 0.000000 0.000000
												CHANNELS 3 Xrotation Yrotation Zrotation
												End Site
												{
													OFFSET 3.459808 4.342407 -0.466164
												}
											}
										}
									}
								}
							}
						}
					}
				}
			}
		}
	}
	JOINT LeftUpLeg
	{
		OFFSET 19.899099 -7.885101 -3.429500
		CHANNELS 3 Xrotation Yrotation Zrotation
		JOINT LeftLeg
		{
			OFFSET 1.745560 -36.997807 10.304700
			CHANNELS 3 Xrotation Yrotation Zrotation
			JOINT LeftFoot
			{
				OFFSET -1.745558 -29.803308 -13.615400
				CHANNELS 3 Xrotation Yrotation Zrotation
				JOINT LeftToeBase
				{
					OFFSET 1.181900 -18.539904 15.226099
					CHANNELS 3 Xrotation Yrotation Zrotation
					JOINT LeftToe_End
					{
						OFFSET -0.863701 1.402801 16.534700
						CHANNELS 3 Xrotation Yrotation Zrotation
						End Site
						{
							OFFSET 0.000000 16.616566 0.000000
						}
					}
				}
			}
		}
	}
	JOINT RightUpLeg
	{
		OFFSET -19.899099 -7.885101 -3.429500
		CHANNELS 3 Xrotation Yrotation Zrotation
		JOINT RightLeg
		{
			OFFSET -1.745560 -36.997807 10.304700
			CHANNELS 3 Xrotation Yrotation Zrotation
			JOINT RightFoot
			{
				OFFSET 1.745558 -29.803308 -13.615400
				CHANNELS 3 Xrotation Yrotation Zrotation
				JOINT RightToeBase
				{
					OFFSET -1.181900 -18.539904 15.226099
					CHANNELS 3 Xrotation Yrotation Zrotation
					JOINT RightToe_End
					{
						OFFSET 0.863701 1.402801 16.534700
						CHANNELS 3 Xrotation Yrotation Zrotation
						End Site
						{
							OFFSET 0.000000 16.616566 0.000000
						}
					}
				}
			}
		}
	}
}
MOTION
Frames: 4
Frame Time: 0.033333
4.746892 79.430641 4.934104 4.937003 27.990050 3.107782 3.563549 2.167737 -2.432275 3.420789 2.631022 -3.377533 3.326023 2.700974 -3.466041 -5.305163 0.740856 -0.116294 -8.370757 2.906774 2.807555 0.000000 -0.000001 -0.000000 0.688400 2.927634 -8.493318 -11.357592 -23.729723 -64.528656 0.000050 -123.035094 0.000050 27.196574 -21.065657 28.511972 -9.674878 0.269249 1.575510 18.503148 20.929747 -3.451875 -18.186579 -25.644761 1.164927 0.000001 -0.000000 0.000001 -0.932021 7.376083 -82.600654 4.957421 5.782657 -81.199550 3.978859 5.544418 -71.308049 0.000003 0.000005 -0.000003 -4.013652 6.208982 -77.776846 4.605493 5.717371 -77.688067 1.644156 4.070215 -43.978236 -0.000003 0.000000 0.000005 -2.842593 4.593810 -63.952181 4.026910 5.560379 -71.804857 2.498973 4.798405 -55.000317 -0.000001 0.000000 0.000008 -3.849835 2.876625 -61.548310 2.994993 5.108749 -60.739930 1.046326 3.342997 -34.750903 -0.000000 0.000002 0.000002 0.539314 6.080268 7.823481 -25.519359 14.965957 52.186743 -0.000036 124.287928 0.000063 30.666299 -5.959622 -30.155541 -6.752291 7.209120 -18.581241 15.970746 -27.521518 14.722094 -5.142184 21.103562 -19.354302 -0.000000 0.000000 0.000001 -4.026035 10.918949 28.366766 3.771262 -4.572319 79.022283 0.645269 -2.367068 30.493024 -0.000000 -0.000003 -0.000001 -4.887187 0.191125 47.726790 2.776644 -4.261385 66.161222 0.779564 -2.581389 33.603042 0.000001 -0.000001 -0.000006 -3.942186 -1.273084 51.126517 3.609633 -4.538078 76.987345 0.576886 -2.246989 28.794117 -0.000000 -0.000001 0.000002 -2.239462 -3.305815 56.827140 2.160893 -3.932894 57.559302 0.789801 -2.596731 33.829944 -0.000003 0.000000 0.000001 -38.922011 -1.200376 -2.335501 45.595891 -8.347061 3.665192 -11.745316 -9.757517 -5.988741 -3.342758 0.000004 -0.000001 -0.000000 -0.000000 0.000000 -39.859095 -1.503608 -0.261990 58.520958 -6.867059 -0.741264 -20.930085 2.309614 -10.766490 -4.434402 -0.000000 -0.000007 0.000000 -0.000000 -0.000001 
3.942523 80.710388 5.743431 4.700713 29.053931 2.190746 3.473323 2.060659 -2.128539 3.381783 2.551433 -3.237269 3.287110 2.625979 -3.335776 -4.610247 0.603576 -0.014858 -9.371799 2.398376 3.080172 -0.000000 0.000005 -0.000000 0.645280 2.668903 -7.546825 -11.515587 -24.217141 -65.190460 -0.000008 -122.929827 -0.000014 25.606909 -19.928492 27.121414 -9.674874 0.269250 1.575507 18.293034 20.088973 -3.368437 -18.468797 -26.438914 0.916189 0.000002 0.000004 -0.000001 -1.005989 7.364515 -81.728746 4.869845 5.768486 -80.329466 3.895058 5.515515 -70.438669 -0.000003 -0.000003 0.000001 -4.048729 6.065731 -76.929534 4.517188 5.697495 -76.800122 1.583124 4.006160 -43.111546 -0.000004 -0.000002 -0.000000 -2.860077 4.470032 -63.099815 3.941844 5.531822 -70.924678 2.426734 4.747183 -54.132087 0.000004 -0.000000 0.000008 -3.865291 2.765115 -60.697419 2.916943 5.064410 -59.859641 0.996491 3.270111 -33.886659 -0.000003 0.000003 0.000002 0.560599 6.362486 7.038578 -24.555729 13.973913 51.983279 0.000026 124.678396 -0.000006 29.959266 -6.540603 -28.518318 -6.752290 7.209118 -18.581239 15.587752 -26.749553 14.462529 -5.147644 21.940328 -19.242108 -0.000000 -0.000002 0.000002 -3.960434 10.989116 27.514954 3.700080 -4.557977 78.127959 0.610014 -2.306213 29.628394 -0.000001 -0.000001 -0.000001 -4.834314 0.319431 46.881223 2.711109 -4.231897 65.276241 0.741049 -2.522525 32.738101 0.000000 0.000000 -0.000001 -3.912620 -1.155184 50.276469 3.540076 -4.521488 76.106640 0.543441 -2.185104 27.929610 0.000001 0.000002 0.000000 -2.287416 -3.272508 55.960679 2.101731 -3.894733 56.692336 0.751073 -2.538047 32.965276 0.000001 -0.000002 0.000002 -39.649767 -0.493600 -0.545828 44.221606 -8.479108 3.744318 -6.724968 -12.571522 -5.882447 -6.260075 -0.000003 -0.000002 -0.000000 -0.000000 -0.000000 -38.898604 -1.832826 0.102645 56.006581 -7.256608 0.059778 -16.400942 1.461674 -9.001923 -7.993562 -0.000009 0.000001 -0.000000 0.000001 -0.000001 
2.833050 84.014297 6.310444 4.399192 30.395400 1.119218 3.343734 1.908091 -1.773581 3.318475 2.452315 -3.061481 3.222811 2.532802 -3.173871 -3.726089 0.435296 0.112317 -9.196859 1.603691 3.514170 0.000000 -0.000000 0.000000 0.602602 2.361117 -6.351608 -11.711659 -24.841717 -66.077292 0.000013 -122.752406 0.000005 23.713927 -18.426367 25.456870 -9.674872 0.269245 1.575509 17.819540 18.150075 -3.236782 -19.166554 -28.259414 0.272750 0.000000 0.000001 -0.000001 -1.180902 7.333588 -79.720780 4.669108 5.730850 -78.325966 3.703894 5.444113 -68.437054 0.000001 0.000000 -0.000006 -4.121605 5.735137 -74.979351 4.315100 5.646516 -74.755635 1.446334 3.855206 -41.116298 -0.000003 -0.000001 0.000005 -2.893744 4.184914 -61.137529 3.747715 5.461161 -68.898140 2.263416 4.625114 -52.133270 0.000002 0.000000 0.000004 -3.896547 2.506955 -58.738377 2.739901 4.957807 -57.833015 0.885933 3.099436 -31.896973 -0.000000 0.000003 0.000002 0.598654 6.707166 6.009323 -23.351078 12.747816 51.916838 -0.000010 125.145130 0.000036 29.219966 -7.320936 -26.480358 -6.752290 7.209124 -18.581241 14.722722 -24.954170 13.958864 -5.186204 23.871235 -18.942141 -0.000001 -0.000002 0.000002 -3.808609 11.154554 25.553435 3.537092 -4.520759 76.068718 0.532372 -2.164098 27.637676 -0.000000 -0.000002 0.000003 -4.706226 0.611017 44.933431 2.562004 -4.160190 63.238611 0.655786 -2.384821 30.746616 -0.000001 0.000000 -0.000004 -3.838573 -0.886171 48.318749 3.380931 -4.479253 74.078695 0.470058 -2.040758 25.939202 -0.000002 0.000001 -0.000005 -2.399956 -3.191057 53.965683 1.967705 -3.803500 54.696151 0.665288 -2.400728 30.974416 -0.000001 0.000000 0.000001 -38.553754 0.430878 1.402644 37.593593 -8.528050 3.874113 2.496022 -16.561875 -5.719576 -10.837339 -0.000005 -0.000001 -0.000000 0.000000 0.000000 -36.193073 -2.272000 0.358463 48.702322 -7.596632 1.011453 -7.769401 0.208914 -7.009041 -12.829211 0.000004 0.000000 0.000000 0.000001 -0.000000 
1.394078 88.460464 6.751964 4.237714 31.563674 0.142765 3.178383 1.773371 -1.462125 3.207902 2.395465 -2.845185 3.111642 2.479250 -2.968876 -2.990869 0.283565 0.224394 -6.946796 0.830648 4.442414 -0.000000 0.000000 -0.000000 0.576460 2.037347 -5.354712 -11.969912 -25.381342 -66.701087 0.000021 -122.892821 0.000021 22.237084 -16.961308 23.951438 -9.674878 0.269252 1.575512 17.139532 15.296355 -3.189581 -20.326194 -30.909891 -0.859946 0.000004 -0.000002 -0.000002 -1.449363 7.276527 -76.768587 4.376728 5.662882 -75.381171 3.427737 5.327237 -65.495387 -0.000000 -0.000000 -0.000000 -4.208976 5.247953 -72.114524 4.021673 5.558662 -71.750748 1.255051 3.624865 -38.184313 0.000000 0.000005 0.000004 -2.926612 3.766065 -58.253912 3.467201 5.344962 -65.919822 2.031362 4.435557 -49.196111 -0.000004 -0.000001 0.000004 -3.931268 2.124247 -55.859275 2.486823 4.789918 -54.854888 0.734380 2.841802 -28.973037 -0.000003 0.000001 0.000001 0.639305 7.064265 5.254945 -22.496755 11.648255 51.482028 -0.000049 125.776404 0.000072 28.520418 -8.122226 -24.606745 -6.752288 7.209121 -18.581241 13.480859 -22.278713 13.447264 -5.316056 26.718489 -18.391942 0.000000 -0.000001 0.000002 -3.582491 11.407608 22.669668 3.300170 -4.455502 73.041824 0.427310 -1.950488 24.711752 -0.000003 -0.000003 -0.000001 -4.502246 1.029369 42.068122 2.347688 -4.045294 60.243764 0.539261 -2.177202 27.819642 0.000000 0.000001 -0.000004 -3.714870 -0.497476 45.439923 3.149955 -4.407037 71.097871 0.371380 -1.824126 23.013703 -0.000000 -0.000001 -0.000002 -2.570195 -3.058864 51.033538 1.776683 -3.661060 51.762353 0.547978 -2.193640 28.048355 -0.000003 0.000002 -0.000006 -35.178606 1.461238 2.579506 26.956259 -8.444289 4.322502 13.624773 -19.071406 -5.316563 -16.315744 0.000003 -0.000002 0.000000 -0.000001 -0.000000 -32.128831 -2.962353 0.494200 37.484099 -7.089695 2.037967 3.637204 -0.626529 -5.537748 -15.126852 0.000003 0.000000 0.000000 0.000001 -0.000000 
